<svg xmlns="http://www.w3.org/2000/svg" viewBox="0 0 100 100">
  <defs>
    <linearGradient id="monitorGrad" x1="0%" y1="0%" x2="100%" y2="100%">
      <stop offset="0%" style="stop-color:#9944ff;stop-opacity:1" />
      <stop offset="50%" style="stop-color:#6633cc;stop-opacity:1" />
      <stop offset="100%" style="stop-color:#442299;stop-opacity:1" />
    </linearGradient>
    <filter id="glow">
      <feGaussianBlur stdDeviation="2" result="coloredBlur"/>
      <feMerge> 
        <feMergeNode in="coloredBlur"/>
        <feMergeNode in="SourceGraphic"/>
      </feMerge>
    </filter>
  </defs>
  
  <!-- Outer pentagon frame -->
  <polygon points="50,10 80,30 80,70 50,90 20,70 20,30" 
           fill="none" stroke="#9944ff" stroke-width="2" opacity="0.8"/>
  
  <!-- Monitor screen -->
  <rect x="30" y="25" width="40" height="30" rx="3" 
        fill="url(#monitorGrad)" stroke="#9944ff" stroke-width="1.5" filter="url(#glow)"/>
  
  <!-- Screen bezel -->
  <rect x="32" y="27" width="36" height="26" rx="2" 
        fill="#000000" stroke="#333333" stroke-width="1"/>
  
  <!-- Active screen display -->
  <rect x="34" y="29" width="32" height="22" fill="#001122" rx="1"/>
  
  <!-- Chart/graph lines (monitoring data) -->
  <polyline points="36,40 40,35 44,42 48,33 52,38 56,30 60,45 64,35" 
            fill="none" stroke="#00ff99" stroke-width="1.5" opacity="0.8"/>
  <polyline points="36,45 40,42 44,48 48,40 52,44 56,37 60,50 64,42" 
            fill="none" stroke="#ff0099" stroke-width="1.5" opacity="0.6"/>
  
  <!-- Status indicators -->
  <circle cx="37" cy="31" r="1" fill="#00ff00"/>
  <circle cx="40" cy="31" r="1" fill="#ffff00"/>
  <circle cx="43" cy="31" r="1" fill="#ff0000"/>
  
  <!-- Monitor base/stand -->
  <rect x="47" y="55" width="6" height="8" fill="#333333"/>
  <rect x="42" y="63" width="16" height="3" fill="#333333"/>
  
  <!-- Data flow indicators -->
  <circle cx="25" cy="40" r="2" fill="#9944ff" opacity="0.7"/>
  <circle cx="75" cy="40" r="2" fill="#9944ff" opacity="0.7"/>
  
  <!-- Corner tech accents -->
  <path d="M25,25 L30,25 L30,30" fill="none" stroke="#9944ff" stroke-width="2" opacity="0.6"/>
  <path d="M75,25 L70,25 L70,30" fill="none" stroke="#9944ff" stroke-width="2" opacity="0.6"/>
  <path d="M25,55 L30,55 L30,50" fill="none" stroke="#9944ff" stroke-width="2" opacity="0.6"/>
  <path d="M75,55 L70,55 L70,50" fill="none" stroke="#9944ff" stroke-width="2" opacity="0.6"/>
</svg>
