<svg xmlns="http://www.w3.org/2000/svg" viewBox="0 0 100 100">
  <defs>
    <linearGradient id="cacheGrad" x1="0%" y1="0%" x2="100%" y2="100%">
      <stop offset="0%" style="stop-color:#ffff00;stop-opacity:1" />
      <stop offset="50%" style="stop-color:#cccc00;stop-opacity:1" />
      <stop offset="100%" style="stop-color:#999900;stop-opacity:1" />
    </linearGradient>
    <filter id="glow">
      <feGaussianBlur stdDeviation="2" result="coloredBlur"/>
      <feMerge> 
        <feMergeNode in="coloredBlur"/>
        <feMergeNode in="SourceGraphic"/>
      </feMerge>
    </filter>
  </defs>
  
  <!-- Outer diamond frame -->
  <polygon points="50,5 85,35 85,65 50,95 15,65 15,35" 
           fill="none" stroke="#ffff00" stroke-width="2" opacity="0.8"/>
  
  <!-- Memory chip representation -->
  <rect x="25" y="25" width="50" height="50" rx="3" 
        fill="url(#cacheGrad)" stroke="#ffff00" stroke-width="1.5" filter="url(#glow)"/>
  
  <!-- Memory grid pattern -->
  <g stroke="#000000" stroke-width="1" opacity="0.6">
    <line x1="35" y1="30" x2="35" y2="70"/>
    <line x1="45" y1="30" x2="45" y2="70"/>
    <line x1="55" y1="30" x2="55" y2="70"/>
    <line x1="65" y1="30" x2="65" y2="70"/>
    
    <line x1="30" y1="35" x2="70" y2="35"/>
    <line x1="30" y1="45" x2="70" y2="45"/>
    <line x1="30" y1="55" x2="70" y2="55"/>
    <line x1="30" y1="65" x2="70" y2="65"/>
  </g>
  
  <!-- Active memory cells -->
  <rect x="32" y="32" width="4" height="4" fill="#ffffff" opacity="0.9"/>
  <rect x="42" y="32" width="4" height="4" fill="#ffffff" opacity="0.7"/>
  <rect x="52" y="42" width="4" height="4" fill="#ffffff" opacity="0.9"/>
  <rect x="62" y="52" width="4" height="4" fill="#ffffff" opacity="0.8"/>
  <rect x="42" y="62" width="4" height="4" fill="#ffffff" opacity="0.9"/>
  
  <!-- Lightning bolt (speed indicator) -->
  <path d="M45,15 L40,25 L47,25 L42,35 L48,25 L43,25 Z" 
        fill="#ffff00" stroke="#ffffff" stroke-width="1" opacity="0.8"/>
  
  <!-- Connection pins -->
  <rect x="20" y="47" width="5" height="6" fill="#666666"/>
  <rect x="75" y="47" width="5" height="6" fill="#666666"/>
  
  <!-- Corner tech accents -->
  <path d="M20,20 L25,20 L25,25" fill="none" stroke="#ffff00" stroke-width="2" opacity="0.6"/>
  <path d="M80,20 L75,20 L75,25" fill="none" stroke="#ffff00" stroke-width="2" opacity="0.6"/>
</svg>
