<svg xmlns="http://www.w3.org/2000/svg" viewBox="0 0 100 100">
  <defs>
    <linearGradient id="mlGrad" x1="0%" y1="0%" x2="100%" y2="100%">
      <stop offset="0%" style="stop-color:#ff0088;stop-opacity:1" />
      <stop offset="50%" style="stop-color:#cc0066;stop-opacity:1" />
      <stop offset="100%" style="stop-color:#990044;stop-opacity:1" />
    </linearGradient>
    <filter id="glow">
      <feGaussianBlur stdDeviation="2" result="coloredBlur"/>
      <feMerge> 
        <feMergeNode in="coloredBlur"/>
        <feMergeNode in="SourceGraphic"/>
      </feMerge>
    </filter>
  </defs>
  
  <!-- Outer hexagon frame -->
  <polygon points="50,8 75,25 75,55 50,72 25,55 25,25" 
           fill="none" stroke="#ff0088" stroke-width="2" opacity="0.8"/>
  
  <!-- Neural network brain representation -->
  <circle cx="50" cy="40" r="20" 
          fill="url(#mlGrad)" stroke="#ff0088" stroke-width="1.5" filter="url(#glow)"/>
  
  <!-- Neural network nodes -->
  <circle cx="40" cy="30" r="3" fill="#ffffff" opacity="0.9"/>
  <circle cx="50" cy="25" r="3" fill="#ffffff" opacity="0.9"/>
  <circle cx="60" cy="30" r="3" fill="#ffffff" opacity="0.9"/>
  
  <circle cx="35" cy="40" r="3" fill="#ffffff" opacity="0.8"/>
  <circle cx="50" cy="40" r="3" fill="#ffffff" opacity="0.9"/>
  <circle cx="65" cy="40" r="3" fill="#ffffff" opacity="0.8"/>
  
  <circle cx="40" cy="50" r="3" fill="#ffffff" opacity="0.9"/>
  <circle cx="50" cy="55" r="3" fill="#ffffff" opacity="0.9"/>
  <circle cx="60" cy="50" r="3" fill="#ffffff" opacity="0.9"/>
  
  <!-- Neural connections -->
  <g stroke="#00ffcc" stroke-width="1.5" opacity="0.7">
    <line x1="40" y1="30" x2="35" y2="40"/>
    <line x1="40" y1="30" x2="50" y2="40"/>
    <line x1="50" y1="25" x2="50" y2="40"/>
    <line x1="60" y1="30" x2="65" y2="40"/>
    <line x1="60" y1="30" x2="50" y2="40"/>
    
    <line x1="35" y1="40" x2="40" y2="50"/>
    <line x1="50" y1="40" x2="40" y2="50"/>
    <line x1="50" y1="40" x2="50" y2="55"/>
    <line x1="50" y1="40" x2="60" y2="50"/>
    <line x1="65" y1="40" x2="60" y2="50"/>
  </g>
  
  <!-- AI processing indicator -->
  <path d="M45,75 L40,85 L47,85 L42,95 L48,85 L43,85 Z" 
        fill="#ff0088" stroke="#ffffff" stroke-width="1" opacity="0.8"/>
  
  <!-- Data input/output ports -->
  <rect x="18" y="37" width="7" height="6" fill="#666666"/>
  <rect x="75" y="37" width="7" height="6" fill="#666666"/>
  
  <!-- Processing waves -->
  <g stroke="#ff0088" stroke-width="1" fill="none" opacity="0.6">
    <circle cx="50" cy="40" r="25"/>
    <circle cx="50" cy="40" r="30"/>
  </g>
  
  <!-- Corner tech accents -->
  <path d="M30,15 L35,15 L35,20" fill="none" stroke="#ff0088" stroke-width="2" opacity="0.6"/>
  <path d="M70,15 L65,15 L65,20" fill="none" stroke="#ff0088" stroke-width="2" opacity="0.6"/>
  <path d="M30,65 L35,65 L35,60" fill="none" stroke="#ff0088" stroke-width="2" opacity="0.6"/>
  <path d="M70,65 L65,65 L65,60" fill="none" stroke="#ff0088" stroke-width="2" opacity="0.6"/>
</svg>
