<svg xmlns="http://www.w3.org/2000/svg" viewBox="0 0 60 60" width="60" height="60">
  <defs>
    <linearGradient id="cacheGradient" x1="0%" y1="0%" x2="0%" y2="100%">
      <stop offset="0%" style="stop-color:#f39c12;stop-opacity:1" />
      <stop offset="100%" style="stop-color:#e67e22;stop-opacity:1" />
    </linearGradient>
    <linearGradient id="cacheBorder" x1="0%" y1="0%" x2="0%" y2="100%">
      <stop offset="0%" style="stop-color:#2ecc71;stop-opacity:1" />
      <stop offset="100%" style="stop-color:#27ae60;stop-opacity:1" />
    </linearGradient>
  </defs>
  
  <!-- Pod container -->
  <rect x="8" y="8" width="44" height="44" fill="url(#cacheGradient)" stroke="url(#cacheBorder)" stroke-width="2" rx="8"/>
  
  <!-- Cache memory blocks -->
  <rect x="14" y="16" width="8" height="8" fill="#ecf0f1" stroke="#bdc3c7" stroke-width="1" rx="2"/>
  <rect x="26" y="16" width="8" height="8" fill="#ecf0f1" stroke="#bdc3c7" stroke-width="1" rx="2"/>
  <rect x="38" y="16" width="8" height="8" fill="#ecf0f1" stroke="#bdc3c7" stroke-width="1" rx="2"/>
  
  <rect x="14" y="28" width="8" height="8" fill="#ecf0f1" stroke="#bdc3c7" stroke-width="1" rx="2"/>
  <rect x="26" y="28" width="8" height="8" fill="#ecf0f1" stroke="#bdc3c7" stroke-width="1" rx="2"/>
  <rect x="38" y="28" width="8" height="8" fill="#ecf0f1" stroke="#bdc3c7" stroke-width="1" rx="2"/>
  
  <!-- Active cache indicators -->
  <circle cx="18" cy="20" r="1.5" fill="#2ecc71"/>
  <circle cx="30" cy="20" r="1.5" fill="#e74c3c"/>
  <circle cx="42" cy="20" r="1.5" fill="#2ecc71"/>
  <circle cx="18" cy="32" r="1.5" fill="#f39c12"/>
  <circle cx="30" cy="32" r="1.5" fill="#2ecc71"/>
  <circle cx="42" cy="32" r="1.5" fill="#e74c3c"/>
  
  <!-- Lightning bolt for speed -->
  <path d="M 28 38 L 32 38 L 30 42 L 34 42 L 28 46 L 30 44 L 26 44 Z" fill="#fff" opacity="0.8"/>
  
  <!-- Highlight -->
  <rect x="12" y="12" width="36" height="2" fill="rgba(255,255,255,0.3)" rx="1"/>
  
  <!-- Label -->
  <text x="30" y="48" font-family="Arial, sans-serif" font-size="7" fill="#fff" text-anchor="middle" font-weight="bold">CACHE</text>
</svg>
